<?xml version="1.0" standalone="no"?>
<!DOCTYPE svg PUBLIC "-//W3C//DTD SVG 20010904//EN"
 "http://www.w3.org/TR/2001/REC-SVG-20010904/DTD/svg10.dtd">
<svg version="1.0" xmlns="http://www.w3.org/2000/svg"
 width="300.000000pt" height="300.000000pt" viewBox="0 0 300.000000 300.000000"
 preserveAspectRatio="xMidYMid meet">
<metadata>
Created by potrace 1.10, written by Peter Selinger 2001-2011
</metadata>
<g transform="translate(0.000000,300.000000) scale(0.100000,-0.100000)"
fill="#000000" stroke="none">
<path d="M1529 2859 c-130 -19 -223 -132 -222 -269 0 -77 17 -122 70 -180 101
-114 279 -121 386 -17 54 53 80 107 85 179 13 177 -138 314 -319 287z m126
-50 c26 -7 56 -28 85 -58 71 -72 89 -164 49 -251 -27 -60 -54 -88 -114 -116
-92 -43 -192 -26 -264 47 -45 44 -64 92 -64 160 -1 161 144 263 308 218z"/>
<path d="M1293 2310 c-62 -13 -95 -33 -146 -90 -50 -56 -75 -112 -112 -257
-36 -137 -48 -259 -41 -398 11 -194 46 -279 136 -325 24 -12 128 -33 295 -59
142 -23 259 -42 260 -43 2 -2 40 -97 85 -213 99 -251 101 -255 142 -290 29
-24 38 -27 95 -23 49 3 68 9 89 28 36 34 54 72 54 115 0 45 -213 590 -243 624
-34 37 -69 47 -272 77 -104 15 -193 30 -197 33 -3 3 -2 61 3 129 l10 123 -54
52 c-71 68 -128 146 -166 227 -37 78 -38 106 -8 151 28 41 60 59 109 59 49 0
80 -28 127 -115 20 -38 42 -68 47 -65 17 9 7 124 -14 167 -24 45 -75 93 -100
93 -9 0 -26 2 -37 4 -11 2 -39 0 -62 -4z m-121 -183 c-4 -56 0 -71 28 -128 44
-87 84 -143 149 -213 l56 -58 0 -125 c0 -162 -11 -153 233 -190 115 -17 195
-34 212 -45 38 -23 50 -47 165 -342 108 -278 111 -298 55 -348 -22 -21 -41
-28 -69 -28 -72 0 -90 26 -186 269 -51 130 -95 227 -109 240 -23 22 -59 29
-394 80 -138 21 -173 34 -208 73 -38 41 -54 85 -65 185 -20 179 3 381 65 561
20 59 59 132 70 132 1 0 0 -28 -2 -63z"/>
<path d="M1256 2169 c-38 -45 -34 -80 22 -178 120 -214 318 -347 556 -373 56
-6 115 -8 130 -4 73 18 101 106 52 162 -21 26 -30 28 -128 34 -61 4 -125 15
-154 25 -113 42 -219 134 -286 248 -63 107 -74 117 -123 117 -36 0 -48 -5 -69
-31z m109 -25 c8 -9 25 -35 37 -57 47 -93 133 -189 215 -240 84 -52 222 -88
327 -85 53 1 77 -66 34 -96 -27 -19 -88 -20 -189 -2 -190 34 -346 141 -460
314 -52 80 -67 128 -50 161 14 26 62 28 86 5z"/>
<path d="M21 2084 c-34 -43 -27 -57 16 -34 36 19 57 20 415 20 329 0 379 -2
392 -16 14 -13 16 -63 16 -394 0 -365 -1 -380 -19 -390 -13 -6 -156 -10 -397
-10 -369 0 -377 0 -412 22 l-35 22 7 -30 c13 -55 7 -54 448 -54 395 0 409 1
428 20 19 19 20 33 20 425 0 392 -1 406 -20 425 -19 19 -33 20 -429 20 l-410
0 -20 -26z"/>
<path d="M2070 1706 c0 -39 -29 -83 -66 -101 -20 -9 -61 -15 -108 -15 -42 0
-76 -4 -76 -8 0 -15 36 -42 56 -42 11 0 48 11 81 24 l61 24 132 -387 c72 -212
133 -392 135 -398 5 -15 25 -18 25 -4 0 19 121 89 184 106 154 42 306 -1 417
-116 40 -41 64 -59 75 -55 21 8 11 37 -34 105 -70 103 -201 177 -335 188 -51
5 -70 10 -74 22 -17 52 -69 152 -101 194 -41 53 -133 128 -199 160 -29 14 -46
30 -53 50 -15 45 -14 47 38 47 45 0 48 -2 63 -39 20 -47 71 -87 127 -99 35 -8
46 -7 66 9 34 27 49 94 44 196 -4 93 -25 148 -60 159 -53 16 -157 -48 -180
-112 l-12 -35 -65 3 -64 3 -19 55 c-10 30 -27 64 -38 75 -20 19 -20 19 -20 -9z
m406 -61 c8 -19 14 -66 14 -105 0 -87 -20 -140 -52 -140 -32 0 -83 33 -104 67
-10 15 -26 38 -37 50 -19 22 -19 22 25 80 69 91 128 110 154 48z m-316 -129
c-5 -5 -10 -25 -10 -42 0 -43 36 -85 108 -126 89 -50 166 -134 209 -225 45
-97 76 -133 117 -134 17 0 54 -7 81 -14 l50 -12 -86 -1 c-100 0 -180 -20 -257
-64 -31 -17 -57 -27 -62 -22 -8 8 -49 124 -217 612 -28 81 -33 105 -23 117 10
11 19 6 56 -32 30 -32 41 -50 34 -57z"/>
<path d="M290 1153 c-30 -11 -40 -37 -40 -109 0 -86 5 -103 37 -115 22 -8 23
-10 10 -36 -46 -88 -141 -452 -124 -470 3 -2 51 -5 107 -6 l102 -2 -6 50 c-7
60 14 166 45 226 12 24 46 69 75 100 106 110 274 156 420 114 186 -53 309
-222 303 -415 l-2 -70 484 -3 485 -2 0 72 -1 73 -390 0 -390 0 -27 73 c-30 79
-52 166 -63 240 -5 40 -3 51 11 61 14 11 16 28 15 107 -1 52 -6 98 -12 104
-11 11 -1011 18 -1039 8z m1008 -115 c2 -46 -2 -77 -13 -98 -13 -25 -14 -41
-5 -97 15 -97 66 -253 94 -288 l24 -30 369 -5 368 -5 0 -25 0 -25 -429 -3
c-337 -2 -431 0 -438 10 -4 7 -8 32 -8 54 0 103 -78 258 -164 329 -23 19 -73
49 -112 67 -66 31 -75 33 -184 33 -112 0 -117 -1 -194 -38 -93 -44 -177 -124
-219 -209 -28 -56 -56 -168 -57 -220 0 -27 -2 -28 -55 -28 -54 0 -55 1 -55 29
0 41 42 198 86 319 l37 103 -23 31 c-24 33 -37 100 -26 142 l6 26 498 -2 497
-3 3 -67z"/>
<path d="M683 841 c-109 -40 -183 -113 -224 -221 -31 -81 -24 -203 16 -283 62
-126 184 -200 328 -199 140 2 258 76 319 200 30 61 33 74 33 162 0 84 -4 102
-29 153 -42 84 -129 161 -212 187 -82 25 -163 25 -231 1z m267 -63 c226 -115
226 -439 -1 -563 -44 -23 -69 -30 -135 -33 -72 -4 -88 -1 -143 23 -129 58
-198 175 -189 319 15 232 254 362 468 254z"/>
<path d="M718 660 c-57 -30 -91 -82 -96 -146 -6 -67 9 -103 59 -148 94 -85
221 -59 281 57 75 147 -97 314 -244 237z m184 -68 c33 -36 38 -47 38 -89 0
-65 -28 -109 -86 -135 -41 -18 -51 -19 -90 -8 -72 21 -124 103 -104 168 16 52
23 63 59 88 30 21 45 25 90 21 48 -3 58 -8 93 -45z"/>
<path d="M2503 846 c-161 -52 -256 -182 -257 -351 -1 -69 3 -89 30 -146 70
-148 212 -227 372 -209 125 15 230 92 286 210 27 57 31 76 31 150 0 76 -3 93
-32 151 -62 125 -175 200 -313 206 -45 2 -92 -3 -117 -11z m236 -57 c60 -25
134 -101 164 -167 15 -34 21 -67 21 -122 2 -339 -457 -446 -606 -143 -29 59
-33 77 -32 143 0 91 26 155 87 218 96 99 238 127 366 71z"/>
<path d="M2535 667 c-43 -20 -92 -80 -105 -128 -20 -74 12 -150 82 -197 144
-95 336 75 256 227 -34 67 -86 104 -150 108 -31 2 -66 -2 -83 -10z m142 -47
c100 -60 93 -199 -12 -250 -128 -62 -258 87 -179 207 39 60 130 81 191 43z"/>
</g>
</svg>
